<svg xmlns="http://www.w3.org/2000/svg" viewBox="0 0 545.06 642.4"><defs><style>.cls-1,.cls-3{fill:#300;}.cls-1,.cls-2{stroke:#000;stroke-miterlimit:10;}.cls-2,.cls-4{fill:#fff;}.cls-5{fill:#ff6464;}</style></defs><g id="Layer_2" data-name="Layer 2"><g id="App_Icon_Kit_A" data-name="App Icon Kit A"><g id="App_Icon_and_Badge_-_Main" data-name="App Icon and Badge - Main"><path class="cls-1" d="M272.53,641.5l272-405s-42-236-272-236-272,236-272,236Z"/><path class="cls-2" d="M272,156.5c3.34-7.31,32.49-68,84.28-71.79a74.22,74.22,0,0,1,32,5c66.55,24.66,86.51,130.86,89,145L271.53,540.5l-205-306c2.49-14.14,22.44-120.33,89-145a74.22,74.22,0,0,1,32-5c51.79,3.8,81.15,64.69,84.5,72"/><ellipse class="cls-3" cx="176.53" cy="221.5" rx="33" ry="51"/><circle class="cls-4" cx="182.03" cy="192" r="12.5"/><circle class="cls-4" cx="195.03" cy="205" r="4.5"/><ellipse class="cls-3" cx="369.03" cy="221" rx="33" ry="51"/><circle class="cls-4" cx="374.53" cy="191.5" r="12.5"/><circle class="cls-4" cx="387.53" cy="204.5" r="4.5"/><path class="cls-5" d="M215,308l57,72,57-72s-3-17-57-17S215,308,215,308Z"/></g></g></g></svg>